<?xml version="1.0" encoding="utf-8"?>
<!-- Generator: Adobe Illustrator 16.0.0, SVG Export Plug-In . SVG Version: 6.00 Build 0)  -->
<!DOCTYPE svg PUBLIC "-//W3C//DTD SVG 1.1//EN" "http://www.w3.org/Graphics/SVG/1.1/DTD/svg11.dtd">
<svg version="1.1" id="Layer_1" xmlns="http://www.w3.org/2000/svg" xmlns:xlink="http://www.w3.org/1999/xlink" x="0px" y="0px"
	 width="512px" height="96px" viewBox="0 0 512 96" enable-background="new 0 0 512 96" xml:space="preserve">
<g>
	<rect id="Rectangle-path" x="0" fill="#53C4D3" width="96" height="96"/>
	<polygon fill="#FFFFFF" points="60.7,55.55 68.7,79.8 48,64.7 48.26,64.48 48.1,64.6 27.3,79.6 35.2,55.4 14.4,40.4 40.1,40.4 
		48,16.2 55.9,40.4 81.6,40.4 60.9,55.4 	"/>
</g>
<g>
	<rect id="Rectangle-path_1_" x="104" fill="#53C4D3" width="96" height="96"/>
	<polygon fill="#FFFFFF" points="164.7,55.55 172.7,79.8 152,64.7 152.26,64.48 152.1,64.6 131.3,79.6 139.2,55.4 118.4,40.4 
		144.1,40.4 152,16.2 159.9,40.4 185.6,40.4 164.9,55.4 	"/>
</g>
<g>
	<rect id="Rectangle-path_5_" x="208" fill="#53C4D3" width="96" height="96"/>
	<polygon fill="#FFFFFF" points="268.7,55.55 276.7,79.8 256,64.7 256.26,64.48 256.1,64.6 235.3,79.6 243.2,55.4 222.4,40.4 
		248.1,40.4 256,16.2 263.901,40.4 289.6,40.4 268.901,55.4 	"/>
</g>
<g>
	<rect id="Rectangle-path_3_" x="312" fill="#53C4D3" width="96" height="96"/>
	<polygon fill="#FFFFFF" points="372.7,55.55 380.7,79.8 360,64.7 360.26,64.48 360.1,64.6 339.3,79.6 347.2,55.4 326.401,40.4 
		352.1,40.4 360,16.2 367.901,40.4 393.6,40.4 372.901,55.4 	"/>
</g>
<g>
	<rect id="Rectangle-path_7_" x="416" fill="#53C4D3" width="96" height="96"/>
	<polygon fill="#FFFFFF" points="476.7,55.55 484.7,79.8 464,64.7 464.26,64.48 464.1,64.6 443.3,79.6 451.2,55.4 430.401,40.4 
		456.1,40.4 464,16.2 471.901,40.4 497.6,40.4 476.901,55.4 	"/>
</g>
</svg>
